<svg version="1.1" id="Layer_1" xmlns="http://www.w3.org/2000/svg" x="0" y="0" viewBox="0 0 90 26" style="enable-background:new 0 0 90 26" xml:space="preserve"><style>.st0{fill:#010101}.st1{fill:#31a8e0}</style><path class="st0" d="m1.05 4.8 6.49 4.75c1.01.74 2.03 1.48 3.03 2.22.11.08.19.09.31 0 3.15-2.28 6.3-4.56 9.44-6.84.06-.04.1-.1.19-.11V21.2c-.13-.1-.25-.18-.36-.27-1.36-1.04-2.72-2.08-4.09-3.12-.09-.07-.12-.13-.12-.24v-5.49c0-.11.03-.17.12-.24.47-.34.93-.7 1.42-1.06v5.8c0 .14.04.22.16.29.4.27.8.56 1.22.85V8.31c-2.17 1.54-4.33 3.07-6.51 4.61.46.33.92.65 1.37.97.29.21.58.41.87.62.05.03.1.06.1.14v2.13c-.37-.25-.73-.48-1.09-.71-.92-.6-1.83-1.2-2.74-1.81-.11-.07-.17-.06-.27.01l-3.42 2.46c-.02.01-.04.03-.06.04-.06-.04-.03-.1-.03-.15 0-.62 0-1.24-.01-1.85 0-.14.05-.22.15-.3.64-.47 1.28-.95 1.92-1.43.06-.04.09-.07.15-.11-2.2-1.59-4.39-3.16-6.59-4.76v9.53c.05.02.08-.03.12-.06.39-.27.78-.54 1.17-.8.11-.08.16-.15.16-.29-.01-1.77 0-3.54 0-5.31v-.2c.05-.03.08.02.11.04.45.29.9.59 1.36.87.07.05.1.1.1.19 0 1.81-.01 3.63 0 5.44 0 .14-.09.18-.17.23-1.5 1.08-2.99 2.16-4.49 3.25-.01-5.42-.01-10.84-.01-16.26zM22.44 3.16V22.76c0 .05-.01.08-.07.08-.06 0-.09-.02-.09-.08V3.31c0-.05 0-.1.01-.15h.15zM51.16 11.42c0-.14.01-.28.01-.42.04-.12 0-.25.02-.38 0-.12.01-.24.01-.36.01-.12.07-.25-.03-.37-.17.59-.35 1.19-.51 1.78l-1.35 4.8c-.04.14-.04.34-.13.41-.1.07-.29.03-.44.03h-1.96c-.1 0-.14-.02-.17-.12-.16-.55-.32-1.1-.46-1.65-.16-.62-.36-1.22-.53-1.83-.15-.53-.29-1.07-.44-1.61-.13-.44-.27-.88-.39-1.33-.05-.18-.09-.37-.16-.55-.04.03-.02.07-.02.1.03.08-.02.17.03.26 0 .08.01.17.01.25.02.09-.01.18.02.26 0 .09.01.19.01.28.03.11-.01.23.03.33 0 .13.01.26.01.39.03.19-.02.39.03.58 0 1.47-.01 2.93 0 4.4 0 .18-.04.23-.22.23-.71-.01-1.43 0-2.14 0-.03-.06-.01-.13-.01-.2V7.2c0-.06-.02-.13.02-.19 1.11 0 2.23.01 3.34 0 .15 0 .21.05.25.19.35 1.22.71 2.44 1.06 3.66l.9 3.04c.01.04.03.09.06.17l.67-2.35.69-2.39c.21-.72.42-1.43.61-2.15.04-.13.08-.18.22-.18 1.08.01 2.16.01 3.24 0 .15 0 .18.05.18.18v9.54c0 .14-.04.17-.17.17-.7-.01-1.41-.01-2.11 0-.15 0-.19-.03-.19-.19.01-1.51 0-3.02 0-4.53v-.2c.03-.16-.02-.36.01-.55zM24.19 7.02c1.11 0 2.22.01 3.33 0 .16 0 .23.05.27.2.49 1.7.99 3.4 1.49 5.1.16.53.32 1.06.47 1.59.01.05.02.09.07.14.06-.2.12-.39.17-.58.13-.47.26-.93.4-1.4.17-.57.33-1.14.49-1.71.25-.89.51-1.77.77-2.66.05-.18.12-.36.15-.54.01-.07.06-.14.17-.14 1.11.01 2.22.01 3.33 0 .15 0 .13.08.13.17v9.55c0 .14-.03.18-.17.18-.7-.01-1.39-.01-2.09 0-.16 0-.21-.03-.21-.2.01-1.48 0-2.96 0-4.44 0-.07 0-.13-.01-.2.05-.2 0-.41.03-.62 0-.14.01-.28.01-.42.04-.12 0-.25.02-.38 0-.13.01-.26.01-.39s.07-.26-.03-.38c-.17.6-.35 1.2-.52 1.8-.34 1.22-.68 2.45-1.03 3.67-.13.47-.27.94-.39 1.41-.03.11-.07.15-.19.15-.75-.01-1.5-.01-2.25 0-.14 0-.18-.05-.21-.17-.12-.45-.25-.91-.37-1.36-.15-.53-.31-1.06-.46-1.59-.18-.62-.35-1.24-.52-1.86-.17-.59-.34-1.18-.5-1.76-.03-.09-.05-.18-.08-.27-.1.08-.04.17-.03.26 0 .08.01.17.01.25.03.09-.01.18.02.27 0 .09.01.19.01.28.03.11-.01.23.03.33 0 .13.01.26.01.39.03.18-.02.37.03.55 0 1.49-.01 2.98 0 4.47 0 .18-.04.23-.22.23-.71-.01-1.43 0-2.14 0-.03-.06-.01-.13-.01-.2v-9.5c-.01-.09-.04-.16.01-.22zM59.94 6.94c.58.1 1.15.22 1.7.44.05.02.1.03.15.06.13.06.33.06.37.18.03.11-.09.26-.14.39-.2.5-.4.99-.58 1.49-.06.15-.12.15-.25.09a7.26 7.26 0 0 0-1.36-.46c-.19-.04-.38-.06-.57-.09-.17-.03-.34-.03-.51 0-.4-.01-.73.25-.73.51-.03.06-.03.13 0 .19.02.24.18.37.36.48.61.39 1.29.64 1.94.97.51.26 1 .55 1.36 1.01.25.32.4.67.46 1.07.01.06.03.11.04.17.03.07-.01.15.03.22v.46c-.03.06 0 .13-.02.19-.11.71-.41 1.32-.96 1.8-.52.45-1.14.7-1.81.82-.18.03-.36.06-.55.08-.11.03-.23-.01-.34.02h-.45c-.16-.04-.32.01-.48-.03-.07 0-.14-.01-.22-.01-.06-.04-.12 0-.18-.03-.67-.06-1.3-.26-1.9-.56-.01-.77 0-1.54-.01-2.32 0-.03 0-.06.03-.08.85.45 1.74.74 2.71.8.22.02.45.03.67 0 .41-.01.72-.23.82-.59a.5.5 0 0 0-.12-.47c-.2-.24-.48-.37-.75-.5-.69-.33-1.41-.61-2.04-1.03-.42-.28-.77-.63-.98-1.09-.13-.29-.23-.61-.24-.93-.03-.1.02-.2-.03-.29v-.28c.04-.08 0-.17.03-.26.07-.64.33-1.19.82-1.63.44-.4.98-.61 1.55-.74.15-.03.29-.06.44-.08.06-.03.13.01.18-.03.06 0 .12-.01.18-.01.34-.02.68-.01 1.02 0 .07 0 .14.01.21.01.02.07.09.03.15.06zM80.31 13.2h-2.76c-.14 0-.19.02-.19.18.01 1.12 0 2.24.01 3.36 0 .14-.03.18-.18.18-.82-.01-1.63 0-2.45 0-.03-.06-.01-.13-.01-.2v-9.5c0-.06-.02-.13.02-.19h5.81c.05.05.02.1.02.16v1.83c0 .15-.05.18-.18.18-.94-.01-1.89 0-2.83 0-.06 0-.13-.02-.2.02-.03.59 0 1.18-.01 1.77 0 .13.1.08.15.08h2.79c.03.04.02.08.02.12v1.9c.01.03.02.07-.01.11zM81.48 7.02H88.92c.04.05.02.12.02.18v1.83c0 .15-.03.2-.19.19-.67-.01-1.33 0-2 0-.06 0-.13-.02-.19.02-.04.07-.02.14-.02.21v7.24c0 .07.01.15-.01.22h-2.66c-.04-.07-.02-.14-.02-.21V9.45c0-.07.02-.15-.02-.21-.06-.04-.13-.02-.2-.02h-2.02c-.14 0-.17-.04-.17-.17.01-.63 0-1.26 0-1.89.02-.05 0-.1.04-.14zM37.53 11.96V7.2c0-.14.03-.18.18-.18.79.01 1.58.01 2.36 0 .13 0 .16.04.16.16v9.58c0 .12-.03.15-.15.15-.79-.01-1.59-.01-2.38 0-.14 0-.17-.03-.17-.17v-4.78z"/><path class="st1" d="M7.26 8.49h7.1c-.32.23-.6.43-.88.62-.88.62-1.76 1.23-2.63 1.85-.09.06-.14.07-.24.01-1.08-.8-2.17-1.59-3.25-2.39-.03-.02-.05-.05-.1-.09zM14.37 17.56H7.29c.01-.06.06-.08.09-.1 1.07-.79 2.14-1.57 3.21-2.36.11-.08.17-.08.28 0 1.15.81 2.3 1.62 3.5 2.46z"/><path class="st0" d="M67.43 17.82c.05 0 .1.01.15 0 .12-.02.16.03.2.15.09.32.21.64.31.97.01.04.01.07.07.09.1-.31.2-.61.3-.92.09-.28.09-.28.4-.28.04.4.01.8.01 1.21 0 .11.02.22-.01.32-.15.03-.19-.04-.18-.18.01-.32 0-.65-.01-.97-.11.16-.14.34-.2.5-.07.18-.13.36-.18.54-.03.09-.07.1-.15.11-.1.01-.1-.06-.12-.11-.11-.33-.21-.65-.32-.98-.09.01-.04.08-.04.12-.01.26 0 .53 0 .79 0 .06.02.12-.02.17h-.18c-.04-.4-.01-.8-.01-1.21a.507.507 0 0 1-.02-.32zM80.86 19.19c.26 0 .53.01.79.01.05 0 .11-.03.12.06.01.1-.06.08-.12.08h-1.01c-.04-.39-.01-.78-.01-1.17 0-.12-.02-.24.01-.36h.98c.06 0 .12-.02.12.08-.01.09-.07.06-.12.06-.25.01-.5.01-.76.01-.03.16-.03.32 0 .49.23 0 .47.01.7.01.06 0 .13-.02.12.08-.01.09-.07.06-.12.06-.23.01-.47.01-.7.01-.04.21-.04.39 0 .58zM51.17 19.19c.26 0 .53.01.79.01.05 0 .11-.03.12.06.01.1-.06.08-.12.08h-1.01c-.04-.38-.01-.77-.01-1.15 0-.13-.02-.25.01-.38h.98c.06 0 .12-.02.12.08-.01.09-.07.06-.12.06-.25.01-.5.01-.76.01-.03.16-.03.32 0 .49.23 0 .47.01.7.01.06 0 .13-.02.12.08-.01.09-.07.06-.12.06-.23.01-.47.01-.7.01-.03.21-.03.39 0 .58zM37.82 19.05c.12-.33.24-.67.37-1 .05-.13.07-.31.31-.22-.15.38-.3.77-.45 1.16-.03.08-.08.16-.1.25-.02.07-.05.11-.13.11s-.13-.01-.16-.1c-.12-.33-.25-.65-.37-.97-.06-.15-.12-.29-.19-.45.16-.05.24 0 .3.17.11.35.26.7.39 1.05h.03zM76.53 18.65c0-.18-.01-.35 0-.53.01-.15-.05-.17-.17-.16-.08.01-.17 0-.25 0-.05 0-.08 0-.08-.07s.03-.08.09-.08h1.05c.06 0 .09.02.09.08s-.04.06-.08.06c-.1 0-.21.01-.31 0s-.12.03-.12.12c.01.38 0 .75 0 1.13 0 .07.01.14-.11.14s-.11-.06-.11-.14v-.55zM46.85 18.64c0-.18-.01-.36 0-.54.01-.12-.04-.15-.14-.14-.1.01-.19 0-.29 0-.05 0-.08-.02-.08-.07 0-.06.03-.07.08-.07h1.07c.05 0 .08.01.08.07 0 .06-.02.08-.07.08h-.07c-.36.01-.36.01-.36.36v.89c0 .08-.01.13-.11.13s-.1-.06-.1-.13c-.01-.19-.01-.38-.01-.58zM59.54 19.19c.2 0 .41.01.61.01.05 0 .11-.02.11.07 0 .09-.06.07-.11.07h-.83c-.04-.33-.01-.66-.02-.99 0-.18-.02-.36.02-.54h.18c.04.39.01.77.02 1.16 0 .08-.02.15.02.22zM72.43 18.56v-.63c0-.09.03-.11.11-.11s.1.03.1.11v1.32c0 .08-.02.11-.1.11-.09 0-.11-.03-.11-.11v-.69zM63.9 18.59v.63c0 .07.01.13-.1.12-.09 0-.11-.03-.11-.11v-1.31c0-.09.03-.11.11-.12.11 0 .1.05.1.12v.67zM33.51 18.56v-.62c0-.08 0-.13.11-.13s.1.06.1.12v1.29c0 .07.01.12-.1.12s-.11-.05-.11-.13v-.65zM72.96 12.25v-.6c-.04-.12.01-.25-.03-.38-.05-.44-.11-.89-.23-1.32-.26-.94-.75-1.74-1.57-2.3-.67-.46-1.44-.65-2.24-.75-.08-.03-.18.01-.26-.03h-.93c-.08.04-.18 0-.26.03-.1.01-.2.03-.3.04-.81.12-1.56.36-2.22.89-.5.41-.86.9-1.11 1.47-.23.53-.38 1.09-.42 1.67-.02.06.01.13-.03.19 0 .08-.01.17-.01.25-.01.35-.01.7 0 1.05 0 .08.01.17.01.25.04.06 0 .13.03.19.03.12.03.25.05.37.08.55.24 1.07.5 1.56.39.76.95 1.33 1.72 1.7.61.3 1.25.44 1.93.48.12.03.25-.02.37.03h.39c.13-.05.27 0 .4-.03.37-.03.74-.09 1.1-.19 1.11-.3 1.96-.93 2.5-1.96.31-.58.45-1.21.55-1.86.03-.06-.01-.13.03-.19 0-.07.01-.14.01-.21.02-.1-.02-.23.02-.35zm-3.01 1.2c-.28.93-.85 1.35-1.82 1.35-.86 0-1.43-.4-1.73-1.2-.26-.7-.27-1.42-.23-2.15.02-.38.08-.74.21-1.1.3-.9 1.01-1.36 1.95-1.27.91.08 1.47.61 1.68 1.61.09.42.13.85.12 1.22 0 .56-.03 1.06-.18 1.54zM30.01 19.3c-.09-.22-.11-.47-.33-.63.12-.08.24-.16.3-.3a.7.7 0 0 0 0-.25c-.08-.12-.14-.23-.31-.26-.3-.05-.6-.01-.89-.03-.04.19-.02.38-.02.57 0 .32-.02.64.02.95h.18c.05-.21-.02-.43.04-.64.49-.05.59.01.75.46.02.05.02.1.05.14.06.07.13.03.2.04.02 0 .02-.03.01-.05zm-.52-.75c-.07.01-.14 0-.22 0-.31 0-.31 0-.31-.31 0-.28 0-.28.27-.28h.25c.18.01.29.11.29.28.01.18-.08.29-.28.31zM85.96 17.85c-.24-.04-.47-.01-.7-.03-.04.12-.02.24-.01.36.01.39-.02.78.01 1.17h.42c.55 0 .77-.17.83-.71.04-.35-.1-.72-.55-.79zm.27 1.11c-.09.19-.26.23-.45.24-.33.01-.33.01-.33-.31V18.07c0-.09.03-.12.11-.11h.07c.59 0 .87.47.6 1zM42.95 18.97c-.14-.35-.29-.69-.42-1.04-.04-.1-.1-.11-.19-.12-.1-.01-.1.05-.13.12-.18.47-.37.94-.55 1.4.15.04.24 0 .29-.17.09-.3.11-.28.43-.29.2-.01.36-.01.4.26.02.13.09.31.31.19-.04-.11-.09-.23-.14-.35zm-.83-.25c.08-.22.16-.44.26-.7.1.26.18.48.27.7h-.53zM25.01 17.85c-.28-.06-.55-.02-.83-.03-.03.11-.02.23-.01.34.01.4-.02.79.01 1.19h.18c.05-.2-.02-.41.04-.61.2-.03.4.01.61-.05.2-.05.34-.22.33-.43a.429.429 0 0 0-.33-.41zm-.18.73h-.13c-.32 0-.32 0-.32-.32 0-.3 0-.3.3-.3.16 0 .35-.04.43.18.08.23-.04.42-.28.44z"/><g><path class="st0" d="M-199.63 1.17c3.12 2.28 6.24 4.57 9.36 6.85 1.46 1.07 2.92 2.13 4.37 3.2.17.12.27.14.45.01 4.53-3.29 9.07-6.57 13.61-9.86.08-.06.15-.15.27-.16v23.62c-.19-.14-.36-.26-.52-.38-1.96-1.5-3.93-3-5.89-4.49-.13-.1-.17-.19-.17-.35v-7.92c0-.15.04-.25.17-.35.67-.5 1.34-1 2.04-1.53v.31c0 2.68 0 5.37-.01 8.05 0 .2.06.31.22.42.58.39 1.16.8 1.76 1.23V6.25c-3.13 2.22-6.25 4.42-9.39 6.64.67.48 1.32.94 1.97 1.4.42.3.84.59 1.26.89.07.05.15.09.14.2v3.07c-.54-.35-1.06-.69-1.57-1.03-1.32-.87-2.64-1.73-3.95-2.61-.15-.1-.24-.08-.38.02-1.64 1.19-3.28 2.37-4.93 3.55l-.09.06c-.09-.06-.05-.15-.05-.22 0-.89.01-1.78-.01-2.67 0-.2.07-.31.22-.43.93-.68 1.85-1.38 2.77-2.06l.19-.16c-3.17-2.29-6.32-4.56-9.5-6.85v13.73c.07.03.11-.04.17-.08.56-.38 1.12-.78 1.69-1.15.16-.11.23-.22.23-.42-.01-2.55-.01-5.1-.01-7.66v-.29c.08-.05.12.02.16.05.65.42 1.3.84 1.96 1.26.11.07.15.14.15.27-.01 2.61-.01 5.23-.01 7.84 0 .2-.13.25-.24.33-2.16 1.56-4.31 3.12-6.47 4.68.03-7.81.03-15.62.03-23.44zM-168.8-1.18v28.25c0 .07-.01.12-.1.12-.09 0-.13-.02-.12-.12V-.97c0-.07.01-.14.01-.21h.21zM-127.39 10.72c.01-.2.01-.41.02-.61.05-.18-.01-.36.04-.54 0-.17.01-.35.01-.52.01-.18.1-.36-.04-.53-.25.86-.5 1.71-.74 2.57-.65 2.31-1.29 4.61-1.94 6.92-.06.2-.06.49-.19.59-.14.11-.42.04-.64.04h-2.83c-.14 0-.21-.03-.25-.18-.23-.79-.46-1.58-.67-2.38-.24-.89-.52-1.76-.77-2.64-.22-.77-.42-1.55-.64-2.32-.18-.64-.39-1.27-.57-1.91-.07-.26-.13-.53-.23-.79-.06.05-.03.1-.02.15.04.12-.02.25.04.37.01.12.01.24.02.37.04.12-.02.25.03.38 0 .14.01.27.01.41.04.16-.02.32.04.48.01.19.01.38.02.57.04.28-.03.56.04.84 0 2.11-.01 4.22 0 6.34 0 .26-.05.33-.32.33-1.03-.02-2.06-.01-3.09-.01-.04-.09-.02-.19-.02-.29V4.66c0-.09-.03-.19.03-.28 1.61 0 3.21.01 4.82 0 .22 0 .3.07.36.27.51 1.76 1.02 3.52 1.54 5.27.43 1.46.86 2.92 1.3 4.39.02.06.04.13.09.25.34-1.17.65-2.28.97-3.38l.99-3.44c.3-1.03.6-2.06.89-3.09.05-.19.11-.26.32-.26 1.55.01 3.11.01 4.66 0 .22 0 .25.07.25.26-.01 4.59-.01 9.17 0 13.76 0 .2-.05.24-.25.24-1.01-.01-2.03-.01-3.04 0-.21 0-.27-.04-.27-.27.01-2.18.01-4.35.01-6.53 0-.1 0-.19-.01-.29.06-.28-.02-.56.03-.84zM-166.28 4.38c1.6 0 3.2.01 4.8 0 .24 0 .33.07.39.29.71 2.45 1.43 4.9 2.15 7.35.22.76.45 1.53.68 2.29.02.07.04.13.1.2.08-.29.17-.56.24-.83.18-.67.38-1.35.58-2.01.25-.82.47-1.65.7-2.47.37-1.28.74-2.55 1.1-3.83.07-.26.17-.51.21-.78.02-.1.08-.2.24-.2 1.6.01 3.2.01 4.8 0 .22 0 .19.11.19.24V18.39c0 .2-.04.26-.25.26-1-.01-2.01-.01-3.01 0-.23 0-.3-.04-.3-.29.01-2.13.01-4.26.01-6.4 0-.1 0-.19-.01-.29.07-.3-.01-.6.04-.89.01-.2.01-.41.02-.61.05-.18 0-.36.03-.54.01-.19.01-.37.02-.56.01-.18.1-.37-.05-.54-.25.86-.5 1.72-.74 2.59-.5 1.76-.98 3.53-1.48 5.29-.19.68-.39 1.35-.57 2.03-.04.16-.1.22-.27.22-1.08-.01-2.17-.01-3.25 0-.2 0-.26-.07-.3-.25-.17-.65-.35-1.31-.54-1.96l-.66-2.3-.75-2.69c-.24-.85-.49-1.7-.73-2.54-.04-.13-.07-.26-.11-.39-.14.11-.06.25-.05.38.01.12.01.24.02.36.04.13-.02.26.03.38 0 .13.01.27.01.4.05.16-.02.32.04.48.01.19.01.38.02.57.04.26-.03.53.04.79 0 2.15-.01 4.29 0 6.44 0 .26-.05.33-.32.33-1.03-.02-2.06-.01-3.09-.01-.04-.09-.02-.19-.02-.29V4.66c.01-.1-.02-.2.04-.28zM-114.74 4.26c.83.15 1.66.32 2.45.64.07.03.15.05.22.08.18.09.48.09.53.27.04.16-.12.37-.2.56-.28.72-.57 1.43-.84 2.15-.08.22-.18.21-.36.14-.64-.27-1.28-.53-1.97-.66-.27-.05-.55-.08-.83-.13-.25-.04-.49-.04-.74 0-.57-.01-1.05.36-1.05.73-.04.09-.04.19 0 .28.03.34.26.53.52.7.88.56 1.87.92 2.79 1.4.73.38 1.44.79 1.95 1.46.35.46.58.97.66 1.54.01.08.04.17.06.25.04.1-.02.22.04.32v.67c-.05.09 0 .18-.03.27-.16 1.02-.59 1.91-1.38 2.59-.75.65-1.65 1.01-2.62 1.19-.26.05-.53.08-.79.12-.16.04-.33-.02-.49.03h-.65c-.23-.06-.46.01-.69-.04-.1 0-.21-.01-.31-.01-.08-.06-.18 0-.26-.04-.97-.09-1.88-.37-2.75-.8-.02-1.11 0-2.23-.01-3.34 0-.04 0-.09.04-.12 1.22.65 2.51 1.07 3.9 1.16.32.03.65.04.97 0 .59-.01 1.04-.33 1.18-.85.07-.26-.01-.48-.18-.68-.28-.35-.69-.53-1.08-.72-.99-.47-2.03-.87-2.95-1.49-.6-.4-1.11-.91-1.42-1.57-.19-.42-.33-.87-.35-1.35-.04-.14.02-.29-.04-.42v-.41c.06-.12 0-.25.04-.37.1-.93.48-1.72 1.18-2.34.64-.57 1.41-.88 2.24-1.06.21-.05.42-.08.64-.12.08-.04.18.02.26-.04.09 0 .17-.01.26-.01.49-.03.98-.02 1.47 0 .1.01.21.01.31.02.09.01.19-.04.28 0zM-85.38 13.29c-1.33 0-2.65.01-3.98 0-.21 0-.28.03-.27.26.01 1.61 0 3.23.01 4.84 0 .2-.05.26-.25.26-1.18-.01-2.36 0-3.53 0-.04-.09-.02-.19-.02-.29V4.66c0-.09-.03-.19.03-.28h8.37c.07.07.03.15.04.22 0 .88-.01 1.76.01 2.64 0 .22-.07.26-.27.26-1.36-.01-2.72 0-4.08 0-.09 0-.19-.03-.28.03-.05.85-.01 1.7-.02 2.56 0 .19.14.11.22.11h4.02c.04.05.03.12.03.18v2.74c0 .05.01.11-.03.17zM-83.69 4.38c2.23 0 4.45.01 6.68.01 1.35 0 2.71 0 4.06-.01.06.08.03.17.03.25 0 .88 0 1.76.01 2.64 0 .21-.05.28-.27.28-.96-.01-1.92-.01-2.88 0-.09 0-.19-.03-.28.03l-.01.01c-.06.1-.03.2-.03.31v10.44c0 .1.02.21-.02.31h-3.83c-.05-.1-.03-.21-.03-.31V7.89c0-.1.03-.21-.03-.31-.09-.05-.19-.03-.28-.03-.97 0-1.94-.01-2.91 0-.2 0-.25-.05-.25-.25.01-.91 0-1.82.01-2.72 0-.07-.03-.15.03-.2zM-147.04 11.5V4.63c0-.2.04-.26.25-.26 1.14.01 2.27.01 3.41 0 .19 0 .23.05.23.23-.01 4.61 0 9.21 0 13.82 0 .17-.04.22-.21.21-1.14-.01-2.29-.01-3.43 0-.2 0-.24-.05-.24-.24-.01-2.29-.01-4.59-.01-6.89z"/><path class="st1" d="M-190.68 6.5h10.23c-.47.33-.87.62-1.27.9-1.26.89-2.53 1.77-3.79 2.67-.13.09-.21.1-.34.01-1.56-1.15-3.12-2.3-4.69-3.44a.903.903 0 0 0-.14-.14zM-180.43 19.57h-10.21c.01-.09.08-.11.13-.15 1.54-1.13 3.08-2.26 4.62-3.4.15-.11.25-.12.41 0 1.66 1.18 3.33 2.34 5.05 3.55z"/><path class="st0" d="M-103.94 19.95c.07 0 .14.01.21 0 .17-.02.24.04.28.21.13.47.3.93.45 1.39.02.05.02.1.1.13.15-.44.29-.88.43-1.32.13-.4.13-.4.57-.41.05.58.01 1.16.02 1.74 0 .15.03.31-.02.46-.22.04-.27-.05-.27-.27.02-.46.01-.93-.02-1.4-.16.22-.2.48-.29.73-.09.26-.18.52-.26.78-.04.12-.1.15-.22.16-.15.02-.14-.08-.17-.16-.16-.47-.31-.94-.46-1.42-.14.01-.06.12-.06.17-.01.38 0 .76-.01 1.15 0 .08.03.17-.03.25h-.26c-.05-.58-.01-1.16-.02-1.74 0-.14-.02-.3.03-.45zM-84.59 21.92c.38.01.76.01 1.14.02.07 0 .16-.05.17.09.01.15-.09.12-.17.12h-1.46c-.05-.56-.01-1.12-.02-1.69 0-.17-.03-.35.02-.52h1.41c.08 0 .18-.03.17.12-.01.14-.1.09-.17.09-.36.01-.73.01-1.09.02-.05.23-.04.47 0 .7.34.01.68.01 1.01.02.08 0 .18-.03.17.12-.01.13-.11.09-.17.09-.34.01-.68.01-1.01.02-.05.27-.05.53 0 .8zM-127.38 21.92c.38.01.76.01 1.14.02.07 0 .16-.05.17.09.01.15-.09.12-.17.12h-1.46c-.05-.55-.01-1.11-.02-1.66 0-.18-.03-.36.02-.54h1.41c.08 0 .18-.03.17.12-.01.14-.1.09-.17.09-.36.01-.73.01-1.09.02-.05.23-.04.47 0 .7.34.01.68.01 1.01.02.08 0 .18-.03.17.12-.01.13-.11.09-.17.09-.34.01-.68.01-1.01.02-.04.26-.04.52 0 .79zM-146.62 21.73c.18-.48.35-.96.53-1.44.07-.19.1-.45.44-.32-.22.55-.44 1.11-.65 1.67-.05.12-.11.23-.14.36-.03.11-.07.16-.19.15-.11-.01-.19-.02-.23-.14-.17-.47-.35-.93-.54-1.4-.08-.21-.18-.42-.27-.64.23-.07.35 0 .43.24.16.51.37 1.01.56 1.51.02 0 .04.01.06.01zM-90.83 21.15c0-.25-.02-.51.01-.76.02-.21-.07-.25-.25-.23-.12.01-.24 0-.37 0-.07 0-.12-.01-.12-.09 0-.1.04-.12.13-.12h1.52c.08 0 .13.02.12.12 0 .09-.06.09-.12.09-.15 0-.3.01-.45 0-.14-.01-.17.04-.17.18.01.54 0 1.08 0 1.62 0 .11.02.2-.15.2-.17 0-.15-.09-.15-.2v-.81zM-133.61 21.14c0-.26-.01-.52 0-.79.01-.17-.05-.21-.21-.2-.14.01-.28 0-.42 0-.07 0-.11-.02-.11-.11 0-.08.04-.11.11-.11h1.55c.07 0 .11.02.11.1s-.03.11-.11.11h-.1c-.53.01-.53.01-.53.52v1.28c0 .12-.01.19-.16.19s-.14-.08-.14-.18c.01-.26.01-.54.01-.81zM-115.32 21.92c.3.01.59.01.89.02.07 0 .16-.03.16.1s-.09.11-.16.11h-1.2c-.06-.47-.02-.95-.02-1.43 0-.26-.03-.52.02-.78h.26c.05.56.01 1.11.02 1.67.01.11-.02.21.03.31zM-96.74 21.02c0-.3.01-.61 0-.91 0-.13.04-.16.16-.16s.14.05.14.15v1.91c0 .11-.02.15-.14.15-.13 0-.16-.04-.16-.17.01-.32 0-.65 0-.97zM-109.03 21.06v.91c0 .1.01.19-.14.18-.12-.01-.16-.04-.16-.17.01-.63.01-1.25 0-1.88 0-.12.04-.16.16-.17.15-.01.14.08.14.18v.95zM-152.85 21.02v-.89c0-.12.01-.19.16-.19s.14.08.14.18v1.86c0 .1.01.18-.14.18-.16 0-.16-.07-.16-.19.01-.32 0-.63 0-.95zM-95.97 11.92v-.87c-.06-.18.01-.36-.04-.54-.07-.64-.15-1.28-.33-1.9-.38-1.36-1.09-2.51-2.27-3.32-.97-.67-2.09-.94-3.24-1.08-.12-.04-.25.02-.37-.04h-1.35c-.12.06-.25-.01-.38.04l-.43.06c-1.17.18-2.25.52-3.19 1.29-.72.58-1.24 1.3-1.61 2.12-.34.76-.55 1.57-.6 2.41-.04.09.02.18-.04.27 0 .12-.01.24-.01.36-.02.51-.02 1.01 0 1.52 0 .12.01.24.01.36.05.08 0 .18.04.27.04.17.04.36.07.53.12.79.35 1.54.72 2.25.56 1.09 1.38 1.92 2.48 2.46.88.43 1.81.64 2.78.7.17.04.36-.02.53.04h.57c.19-.07.39.01.58-.04.54-.05 1.07-.13 1.59-.27 1.6-.44 2.83-1.35 3.61-2.83.44-.84.65-1.75.8-2.67.04-.09-.01-.18.04-.27 0-.1.01-.21.01-.31.03-.19-.03-.37.03-.54zm-4.34 1.74c-.4 1.34-1.23 1.95-2.62 1.95-1.24 0-2.07-.57-2.49-1.74-.37-1-.39-2.05-.33-3.1.03-.54.12-1.07.3-1.59.44-1.29 1.46-1.96 2.82-1.84 1.31.12 2.11.89 2.42 2.32.13.61.18 1.23.17 1.77-.01.8-.06 1.52-.27 2.23zM-157.89 22.08c-.14-.31-.16-.68-.48-.92.18-.11.34-.24.43-.43.02-.12.03-.24 0-.36-.11-.17-.2-.33-.45-.38-.43-.08-.86-.02-1.29-.04-.06.27-.03.55-.02.83 0 .46-.04.92.02 1.37h.26c.07-.31-.03-.62.05-.93.71-.08.85.01 1.08.66.02.07.02.14.08.21.09.1.19.04.29.05.05.01.05-.02.03-.06zm-.74-1.09c-.1.01-.21 0-.31 0-.45 0-.45 0-.45-.44 0-.4 0-.4.39-.4.12 0 .24-.01.37 0 .27.01.41.16.42.4 0 .27-.14.42-.42.44zM-77.24 19.99c-.34-.06-.67-.02-1.01-.04-.05.17-.02.34-.02.52.01.56-.03 1.13.02 1.69h.6c.79 0 1.1-.25 1.2-1.02.07-.51-.14-1.04-.79-1.15zm.4 1.6c-.14.27-.38.34-.65.35-.47.02-.47.01-.47-.45v-.44c0-.24.01-.49 0-.73 0-.13.04-.18.16-.16h.1c.85-.01 1.25.66.86 1.43zM-139.23 21.61c-.2-.5-.41-.99-.61-1.5-.06-.14-.14-.16-.28-.17-.15-.01-.15.08-.18.17-.26.68-.53 1.35-.79 2.02.22.06.34 0 .42-.25.13-.43.15-.41.62-.42.29-.01.52-.01.58.37.03.19.13.45.45.28-.07-.16-.14-.33-.21-.5zm-1.2-.37c.12-.32.23-.64.37-1.01.14.38.26.69.38 1.01h-.75zM-165.09 20c-.4-.09-.8-.02-1.19-.05-.05.16-.02.33-.02.49.01.57-.03 1.14.02 1.71h.27c.07-.29-.02-.59.05-.87.29-.05.58.01.87-.07.29-.07.49-.32.48-.62-.02-.31-.21-.53-.48-.59zm-.27 1.05h-.18c-.47 0-.47 0-.47-.46 0-.43 0-.44.44-.43.24 0 .5-.06.61.26.12.33-.05.6-.4.63z"/></g></svg>